<svg width="24" height="25" viewBox="0 0 24 25" fill="none" xmlns="http://www.w3.org/2000/svg">
<path fill-rule="evenodd" clip-rule="evenodd" d="M14.8912 4.21412C15.5623 3.54303 16.4725 3.16602 17.4216 3.16602C19.3979 3.16602 21 4.76814 21 6.74445C21 7.6935 20.623 8.60369 19.9519 9.27478L8.28033 20.9463C8.13968 21.087 7.94891 21.166 7.75 21.166H3.75C3.33579 21.166 3 20.8302 3 20.416V16.416C3 16.2171 3.07902 16.0263 3.21967 15.8857L14.8912 4.21412ZM17.4216 4.66602C16.8703 4.66602 16.3417 4.885 15.9519 5.27478L15.5607 5.66602L18.5 8.60536L18.8912 8.21412C19.281 7.82434 19.5 7.29568 19.5 6.74445C19.5 5.59656 18.5695 4.66602 17.4216 4.66602ZM17.4393 9.66602L14.5 6.72668L4.5 16.7267V19.666H7.43934L17.4393 9.66602Z" fill="#666666"/>
</svg>
