<svg width="24" height="25" viewBox="0 0 24 25" fill="none" xmlns="http://www.w3.org/2000/svg">
<path fill-rule="evenodd" clip-rule="evenodd" d="M11.5742 3.29861C11.8305 3.12182 12.1695 3.12182 12.4258 3.29861L18.8113 7.70238C19.5556 8.21569 20 9.06207 20 9.96622V18.416C20 19.9348 18.7688 21.166 17.25 21.166H6.75C5.23122 21.166 4 19.9348 4 18.416V9.96622C4 9.06207 4.44443 8.21569 5.18873 7.70238L11.5742 3.29861ZM10.5 19.666H13.5V14.916C13.5 14.7779 13.3881 14.666 13.25 14.666H10.75C10.6119 14.666 10.5 14.7779 10.5 14.916V19.666ZM15 19.666V14.916C15 13.9495 14.2165 13.166 13.25 13.166H10.75C9.7835 13.166 9 13.9495 9 14.916V19.666H6.75C6.05964 19.666 5.5 19.1064 5.5 18.416V9.96622C5.5 9.55524 5.70201 9.17052 6.04033 8.9372L12 4.82708L17.9597 8.9372C18.298 9.17052 18.5 9.55524 18.5 9.96622V18.416C18.5 19.1064 17.9404 19.666 17.25 19.666H15Z" fill="#666666"/>
</svg>
