<svg width="24" height="25" viewBox="0 0 24 25" fill="none" xmlns="http://www.w3.org/2000/svg">
<path fill-rule="evenodd" clip-rule="evenodd" d="M10.3238 4.16602H13.6762C13.9337 4.166 14.1702 4.16599 14.3679 4.18214C14.581 4.19955 14.8142 4.23941 15.0445 4.35676C15.3738 4.52454 15.6415 4.79226 15.8093 5.12154C15.9266 5.35185 15.9665 5.58502 15.9839 5.79815C16 5.99583 16 6.23231 16 6.48979V7.16602H18.6762C18.9337 7.166 19.1702 7.16599 19.3679 7.18214C19.581 7.19955 19.8142 7.23941 20.0445 7.35676C20.3738 7.52454 20.6415 7.79226 20.8093 8.12154C20.9266 8.35185 20.9665 8.58502 20.9839 8.79815C21 8.99583 21 9.23231 21 9.48979V13.8422C21 14.0997 21 14.3362 20.9839 14.5339C20.9665 14.747 20.9266 14.9802 20.8093 15.2105C20.6415 15.5398 20.3738 15.8075 20.0445 15.9753C20.0297 15.9828 20.0148 15.99 20 15.997V17.8422C20 18.0997 20 18.3362 19.9839 18.5339C19.9665 18.747 19.9266 18.9802 19.8093 19.2105C19.6415 19.5398 19.3738 19.8075 19.0445 19.9753C18.8142 20.0926 18.581 20.1325 18.3679 20.1499C18.1702 20.166 17.9337 20.166 17.6762 20.166H6.32377C6.06629 20.166 5.82981 20.166 5.63213 20.1499C5.419 20.1325 5.18583 20.0926 4.95552 19.9753C4.62624 19.8075 4.35852 19.5398 4.19074 19.2105C4.07339 18.9802 4.03353 18.747 4.01612 18.5339C3.99997 18.3362 3.99998 18.0997 4 17.8422V15.997C3.98517 15.99 3.97034 15.9828 3.95552 15.9753C3.62624 15.8075 3.35852 15.5398 3.19074 15.2105C3.07339 14.9802 3.03353 14.747 3.01612 14.5339C2.99997 14.3362 2.99998 14.0997 3 13.8422V9.4898C2.99998 9.23232 2.99997 8.99584 3.01612 8.79815C3.03353 8.58502 3.07339 8.35185 3.19074 8.12154C3.35852 7.79226 3.62624 7.52454 3.95552 7.35676C4.18583 7.23941 4.419 7.19955 4.63213 7.18214C4.82982 7.16599 5.0663 7.166 5.32379 7.16602C5.3325 7.16602 5.34124 7.16602 5.35 7.16602H8V6.48981C7.99998 6.23232 7.99997 5.99584 8.01612 5.79815C8.03353 5.58502 8.07339 5.35185 8.19074 5.12154C8.35852 4.79226 8.62624 4.52454 8.95552 4.35676C9.18583 4.23941 9.419 4.19955 9.63213 4.18214C9.82982 4.16599 10.0663 4.166 10.3238 4.16602ZM5.35 8.66602C5.0576 8.66602 4.88341 8.66661 4.75428 8.67716C4.67547 8.68359 4.64234 8.69209 4.63347 8.69485C4.58883 8.71837 4.55235 8.75485 4.52883 8.79949C4.52607 8.80836 4.51757 8.84149 4.51114 8.9203C4.50059 9.04943 4.5 9.22362 4.5 9.51602V13.816C4.5 14.1084 4.50059 14.2826 4.51114 14.4117C4.51757 14.4905 4.52607 14.5237 4.52883 14.5325C4.55235 14.5772 4.58883 14.6137 4.63347 14.6372C4.64234 14.6399 4.67547 14.6484 4.75428 14.6549C4.76561 14.6558 4.77729 14.6566 4.78936 14.6574C4.79424 14.6577 4.7991 14.658 4.80395 14.6583C4.92791 14.6656 5.09346 14.666 5.35 14.666H9V13.916C9 13.5018 9.33579 13.166 9.75 13.166C10.1642 13.166 10.5 13.5018 10.5 13.916V14.666H13.5V13.916C13.5 13.5018 13.8358 13.166 14.25 13.166C14.6642 13.166 15 13.5018 15 13.916V14.666H18.65C18.9065 14.666 19.0721 14.6656 19.1961 14.6583C19.2009 14.658 19.2058 14.6577 19.2106 14.6574C19.2227 14.6566 19.2344 14.6558 19.2457 14.6549C19.3245 14.6484 19.3577 14.6399 19.3665 14.6372C19.4112 14.6137 19.4477 14.5772 19.4712 14.5325C19.4739 14.5237 19.4824 14.4905 19.4889 14.4117C19.4994 14.2826 19.5 14.1084 19.5 13.816V9.51602C19.5 9.22362 19.4994 9.04943 19.4889 8.9203C19.4824 8.84149 19.4739 8.80836 19.4712 8.79949C19.4477 8.75485 19.4112 8.71837 19.3665 8.69485C19.3577 8.69209 19.3245 8.6836 19.2457 8.67716C19.1166 8.66661 18.9424 8.66602 18.65 8.66602H5.35ZM14.5 7.16602H9.5V6.51602C9.5 6.22362 9.50059 6.04943 9.51114 5.9203C9.51757 5.84149 9.52607 5.80836 9.52883 5.79949C9.55235 5.75485 9.58883 5.71837 9.63346 5.69485C9.64234 5.69209 9.67547 5.68359 9.75428 5.67716C9.88341 5.66661 10.0576 5.66602 10.35 5.66602H13.65C13.9424 5.66602 14.1166 5.66661 14.2457 5.67716C14.3245 5.68359 14.3577 5.69209 14.3665 5.69485C14.4112 5.71837 14.4477 5.75484 14.4712 5.79949C14.4739 5.80836 14.4824 5.84149 14.4889 5.9203C14.4994 6.04943 14.5 6.22362 14.5 6.51602V7.16602ZM14.4703 5.7969L14.4708 5.79838L14.4703 5.7969ZM14.3691 5.69575L14.3676 5.6952L14.3691 5.69575ZM9.63088 5.69575L9.63236 5.6952L9.63088 5.69575ZM9.52918 5.79838L9.52973 5.7969L9.52918 5.79838ZM19.3691 8.69575L19.3676 8.69519L19.3691 8.69575ZM19.4703 8.7969L19.4708 8.79838L19.4703 8.7969ZM19.4703 14.5351L19.4708 14.5336L19.4703 14.5351ZM19.3691 14.6363L19.3676 14.6368L19.3691 14.6363ZM18.5 16.166H15V16.416C15 16.8302 14.6642 17.166 14.25 17.166C13.8358 17.166 13.5 16.8302 13.5 16.416V16.166H10.5V16.416C10.5 16.8302 10.1642 17.166 9.75 17.166C9.33579 17.166 9 16.8302 9 16.416V16.166H5.5V17.816C5.5 18.1084 5.50059 18.2826 5.51114 18.4117C5.51758 18.4905 5.52607 18.5237 5.52883 18.5325C5.55235 18.5772 5.58883 18.6137 5.63347 18.6372C5.64235 18.6399 5.67547 18.6484 5.75428 18.6549C5.88341 18.6654 6.0576 18.666 6.35 18.666H17.65C17.9424 18.666 18.1166 18.6654 18.2457 18.6549C18.3245 18.6484 18.3577 18.6399 18.3665 18.6372C18.4112 18.6137 18.4477 18.5772 18.4712 18.5325C18.4739 18.5237 18.4824 18.4905 18.4889 18.4117C18.4994 18.2826 18.5 18.1084 18.5 17.816V16.166ZM18.4703 18.5351L18.4708 18.5336L18.4703 18.5351ZM18.3691 18.6363L18.3676 18.6368L18.3691 18.6363ZM5.63088 18.6363L5.63236 18.6368L5.63088 18.6363ZM5.52918 18.5336L5.52973 18.5351L5.52918 18.5336ZM4.63088 14.6363L4.63236 14.6368L4.63088 14.6363ZM4.52918 14.5336L4.52973 14.5351L4.52918 14.5336ZM4.52917 8.79841L4.52973 8.7969L4.52917 8.79841ZM4.63239 8.69519L4.63088 8.69575L4.63239 8.69519Z" fill="#666666"/>
</svg>
