<svg width="58" height="277" viewBox="0 0 58 277" fill="none" xmlns="http://www.w3.org/2000/svg">
<rect x="0.5" y="0.666016" width="57" height="275" rx="4.5" stroke="#9747FF" stroke-dasharray="10 5"/>
<path fill-rule="evenodd" clip-rule="evenodd" d="M32.5742 23.2986C32.8305 23.1218 33.1695 23.1218 33.4258 23.2986L39.8113 27.7024C40.5556 28.2157 41 29.0621 41 29.9662V38.416C41 39.9348 39.7688 41.166 38.25 41.166H27.75C26.2312 41.166 25 39.9348 25 38.416V29.9662C25 29.0621 25.4444 28.2157 26.1887 27.7024L32.5742 23.2986ZM31.5 39.666H34.5V34.916C34.5 34.7779 34.3881 34.666 34.25 34.666H31.75C31.6119 34.666 31.5 34.7779 31.5 34.916V39.666ZM36 39.666V34.916C36 33.9495 35.2165 33.166 34.25 33.166H31.75C30.7835 33.166 30 33.9495 30 34.916V39.666H27.75C27.0596 39.666 26.5 39.1064 26.5 38.416V29.9662C26.5 29.5552 26.702 29.1705 27.0403 28.9372L33 24.8271L38.9597 28.9372C39.298 29.1705 39.5 29.5552 39.5 29.9662V38.416C39.5 39.1064 38.9404 39.666 38.25 39.666H36Z" fill="#666666"/>
<path fill-rule="evenodd" clip-rule="evenodd" d="M30.3238 69.166H33.6762C33.9337 69.166 34.1702 69.166 34.3679 69.1821C34.581 69.1995 34.8142 69.2394 35.0445 69.3568C35.3738 69.5245 35.6415 69.7923 35.8093 70.1215C35.9266 70.3518 35.9665 70.585 35.9839 70.7981C36 70.9958 36 71.2323 36 71.4898V72.166H38.6762C38.9337 72.166 39.1702 72.166 39.3679 72.1821C39.581 72.1995 39.8142 72.2394 40.0445 72.3568C40.3738 72.5245 40.6415 72.7923 40.8093 73.1215C40.9266 73.3518 40.9665 73.585 40.9839 73.7981C41 73.9958 41 74.2323 41 74.4898V78.8422C41 79.0997 41 79.3362 40.9839 79.5339C40.9665 79.747 40.9266 79.9802 40.8093 80.2105C40.6415 80.5398 40.3738 80.8075 40.0445 80.9753C40.0297 80.9828 40.0148 80.99 40 80.997V82.8422C40 83.0997 40 83.3362 39.9839 83.5339C39.9665 83.747 39.9266 83.9802 39.8093 84.2105C39.6415 84.5398 39.3738 84.8075 39.0445 84.9753C38.8142 85.0926 38.581 85.1325 38.3679 85.1499C38.1702 85.166 37.9337 85.166 37.6762 85.166H26.3238C26.0663 85.166 25.8298 85.166 25.6321 85.1499C25.419 85.1325 25.1858 85.0926 24.9555 84.9753C24.6262 84.8075 24.3585 84.5398 24.1907 84.2105C24.0734 83.9802 24.0335 83.747 24.0161 83.5339C24 83.3362 24 83.0997 24 82.8422V80.997C23.9852 80.99 23.9703 80.9828 23.9555 80.9753C23.6262 80.8075 23.3585 80.5398 23.1907 80.2105C23.0734 79.9802 23.0335 79.747 23.0161 79.5339C23 79.3362 23 79.0997 23 78.8422V74.4898C23 74.2323 23 73.9958 23.0161 73.7981C23.0335 73.585 23.0734 73.3518 23.1907 73.1215C23.3585 72.7923 23.6262 72.5245 23.9555 72.3568C24.1858 72.2394 24.419 72.1995 24.6321 72.1821C24.8298 72.166 25.0663 72.166 25.3238 72.166C25.3325 72.166 25.3412 72.166 25.35 72.166H28V71.4898C28 71.2323 28 70.9958 28.0161 70.7981C28.0335 70.585 28.0734 70.3518 28.1907 70.1215C28.3585 69.7923 28.6262 69.5245 28.9555 69.3568C29.1858 69.2394 29.419 69.1995 29.6321 69.1821C29.8298 69.166 30.0663 69.166 30.3238 69.166ZM25.35 73.666C25.0576 73.666 24.8834 73.6666 24.7543 73.6772C24.6755 73.6836 24.6423 73.6921 24.6335 73.6948C24.5888 73.7184 24.5524 73.7548 24.5288 73.7995C24.5261 73.8084 24.5176 73.8415 24.5111 73.9203C24.5006 74.0494 24.5 74.2236 24.5 74.516V78.816C24.5 79.1084 24.5006 79.2826 24.5111 79.4117C24.5176 79.4905 24.5261 79.5237 24.5288 79.5325C24.5524 79.5772 24.5888 79.6137 24.6335 79.6372C24.6423 79.6399 24.6755 79.6484 24.7543 79.6549C24.7656 79.6558 24.7773 79.6566 24.7894 79.6574C24.7942 79.6577 24.7991 79.658 24.804 79.6583C24.9279 79.6656 25.0935 79.666 25.35 79.666H29V78.916C29 78.5018 29.3358 78.166 29.75 78.166C30.1642 78.166 30.5 78.5018 30.5 78.916V79.666H33.5V78.916C33.5 78.5018 33.8358 78.166 34.25 78.166C34.6642 78.166 35 78.5018 35 78.916V79.666H38.65C38.9065 79.666 39.0721 79.6656 39.1961 79.6583C39.2009 79.658 39.2058 79.6577 39.2106 79.6574C39.2227 79.6566 39.2344 79.6558 39.2457 79.6549C39.3245 79.6484 39.3577 79.6399 39.3665 79.6372C39.4112 79.6137 39.4477 79.5772 39.4712 79.5325C39.4739 79.5237 39.4824 79.4905 39.4889 79.4117C39.4994 79.2826 39.5 79.1084 39.5 78.816V74.516C39.5 74.2236 39.4994 74.0494 39.4889 73.9203C39.4824 73.8415 39.4739 73.8084 39.4712 73.7995C39.4477 73.7548 39.4112 73.7184 39.3665 73.6948C39.3577 73.6921 39.3245 73.6836 39.2457 73.6772C39.1166 73.6666 38.9424 73.666 38.65 73.666H25.35ZM34.5 72.166H29.5V71.516C29.5 71.2236 29.5006 71.0494 29.5111 70.9203C29.5176 70.8415 29.5261 70.8084 29.5288 70.7995C29.5524 70.7548 29.5888 70.7184 29.6335 70.6948C29.6423 70.6921 29.6755 70.6836 29.7543 70.6772C29.8834 70.6666 30.0576 70.666 30.35 70.666H33.65C33.9424 70.666 34.1166 70.6666 34.2457 70.6772C34.3245 70.6836 34.3577 70.6921 34.3665 70.6948C34.4112 70.7184 34.4477 70.7548 34.4712 70.7995C34.4739 70.8084 34.4824 70.8415 34.4889 70.9203C34.4994 71.0494 34.5 71.2236 34.5 71.516V72.166ZM34.4703 70.7969L34.4708 70.7984L34.4703 70.7969ZM34.3691 70.6957L34.3676 70.6952L34.3691 70.6957ZM29.6309 70.6957L29.6324 70.6952L29.6309 70.6957ZM29.5292 70.7984L29.5297 70.7969L29.5292 70.7984ZM39.3691 73.6957L39.3676 73.6952L39.3691 73.6957ZM39.4703 73.7969L39.4708 73.7984L39.4703 73.7969ZM39.4703 79.5351L39.4708 79.5336L39.4703 79.5351ZM39.3691 79.6363L39.3676 79.6368L39.3691 79.6363ZM38.5 81.166H35V81.416C35 81.8302 34.6642 82.166 34.25 82.166C33.8358 82.166 33.5 81.8302 33.5 81.416V81.166H30.5V81.416C30.5 81.8302 30.1642 82.166 29.75 82.166C29.3358 82.166 29 81.8302 29 81.416V81.166H25.5V82.816C25.5 83.1084 25.5006 83.2826 25.5111 83.4117C25.5176 83.4905 25.5261 83.5237 25.5288 83.5325C25.5524 83.5772 25.5888 83.6137 25.6335 83.6372C25.6424 83.6399 25.6755 83.6484 25.7543 83.6549C25.8834 83.6654 26.0576 83.666 26.35 83.666H37.65C37.9424 83.666 38.1166 83.6654 38.2457 83.6549C38.3245 83.6484 38.3577 83.6399 38.3665 83.6372C38.4112 83.6137 38.4477 83.5772 38.4712 83.5325C38.4739 83.5237 38.4824 83.4905 38.4889 83.4117C38.4994 83.2826 38.5 83.1084 38.5 82.816V81.166ZM38.4703 83.5351L38.4708 83.5336L38.4703 83.5351ZM38.3691 83.6363L38.3676 83.6368L38.3691 83.6363ZM25.6309 83.6363L25.6324 83.6368L25.6309 83.6363ZM25.5292 83.5336L25.5297 83.5351L25.5292 83.5336ZM24.6309 79.6363L24.6324 79.6368L24.6309 79.6363ZM24.5292 79.5336L24.5297 79.5351L24.5292 79.5336ZM24.5292 73.7984L24.5297 73.7969L24.5292 73.7984ZM24.6324 73.6952L24.6309 73.6957L24.6324 73.6952Z" fill="#666666"/>
<path fill-rule="evenodd" clip-rule="evenodd" d="M34 112.666C32.6193 112.666 31.5 113.785 31.5 115.166C31.5 116.547 32.6193 117.666 34 117.666C35.3807 117.666 36.5 116.547 36.5 115.166C36.5 113.785 35.3807 112.666 34 112.666ZM30 115.166C30 112.957 31.7909 111.166 34 111.166C36.2091 111.166 38 112.957 38 115.166C38 117.375 36.2091 119.166 34 119.166C31.7909 119.166 30 117.375 30 115.166ZM27 126.791C27 123.684 29.5184 121.166 32.625 121.166H35.375C38.4816 121.166 41 123.684 41 126.791C41 128.103 39.9367 129.166 38.625 129.166H29.375C28.0633 129.166 27 128.103 27 126.791ZM32.625 122.666C30.3468 122.666 28.5 124.513 28.5 126.791C28.5 127.274 28.8917 127.666 29.375 127.666H38.625C39.1082 127.666 39.5 127.274 39.5 126.791C39.5 124.513 37.6532 122.666 35.375 122.666H32.625Z" fill="#666666"/>
<path fill-rule="evenodd" clip-rule="evenodd" d="M26.9196 159.166H37.0804C37.6146 159.166 38.0604 159.166 38.4247 159.196C38.8046 159.227 39.1612 159.294 39.4985 159.466C40.0159 159.729 40.4366 160.15 40.7003 160.668C40.8721 161.005 40.9392 161.361 40.9703 161.741C41 162.106 41 162.551 41 163.086V163.916C41 164.33 40.6642 164.666 40.25 164.666C39.4216 164.666 38.75 165.338 38.75 166.166C38.75 166.994 39.4216 167.666 40.25 167.666C40.6642 167.666 41 168.002 41 168.416V169.247C41 169.781 41 170.226 40.9703 170.591C40.9392 170.971 40.8721 171.327 40.7003 171.665C40.4366 172.182 40.0159 172.603 39.4985 172.866C39.1612 173.038 38.8046 173.105 38.4247 173.136C38.0604 173.166 37.6146 173.166 37.0805 173.166H26.9196C26.3854 173.166 25.9396 173.166 25.5753 173.136C25.1955 173.105 24.8388 173.038 24.5015 172.866C23.9841 172.603 23.5634 172.182 23.2997 171.665C23.1279 171.327 23.0608 170.971 23.0297 170.591C23 170.226 23 169.781 23 169.246V168.416C23 168.002 23.3358 167.666 23.75 167.666C24.5784 167.666 25.25 166.994 25.25 166.166C25.25 165.338 24.5784 164.666 23.75 164.666C23.3358 164.666 23 164.33 23 163.916V163.086C23 162.551 23 162.106 23.0297 161.741C23.0608 161.361 23.1279 161.005 23.2997 160.668C23.5634 160.15 23.9841 159.729 24.5015 159.466C24.8388 159.294 25.1955 159.227 25.5753 159.196C25.9396 159.166 26.3854 159.166 26.9196 159.166ZM35 171.666H37.05C37.6224 171.666 38.0066 171.665 38.3025 171.641C38.5896 171.618 38.7269 171.576 38.8175 171.53C39.0527 171.41 39.2439 171.219 39.3638 170.984C39.4099 170.893 39.4518 170.756 39.4752 170.469C39.4994 170.173 39.5 169.788 39.5 169.216V169.072C38.2061 168.739 37.25 167.564 37.25 166.166C37.25 164.768 38.2061 163.594 39.5 163.261V163.116C39.5 162.544 39.4994 162.159 39.4752 161.863C39.4518 161.576 39.4099 161.439 39.3638 161.349C39.2439 161.113 39.0527 160.922 38.8175 160.802C38.7269 160.756 38.5896 160.714 38.3025 160.691C38.0066 160.667 37.6224 160.666 37.05 160.666H35V171.666ZM33.5 160.666V171.666H26.95C26.3776 171.666 25.9934 171.665 25.6975 171.641C25.4104 171.618 25.2731 171.576 25.1825 171.53C24.9473 171.41 24.7561 171.219 24.6362 170.984C24.5901 170.893 24.5482 170.756 24.5248 170.469C24.5006 170.173 24.5 169.788 24.5 169.216V169.072C25.7939 168.739 26.75 167.564 26.75 166.166C26.75 164.768 25.7939 163.594 24.5 163.261V163.116C24.5 162.544 24.5006 162.159 24.5248 161.863C24.5482 161.576 24.5901 161.439 24.6362 161.349C24.7561 161.113 24.9473 160.922 25.1825 160.802C25.2731 160.756 25.4104 160.714 25.6975 160.691C25.9934 160.667 26.3776 160.666 26.95 160.666H33.5Z" fill="#666666"/>
<path fill-rule="evenodd" clip-rule="evenodd" d="M34.8912 200.214C35.5623 199.543 36.4725 199.166 37.4216 199.166C39.3979 199.166 41 200.768 41 202.744C41 203.693 40.623 204.604 39.9519 205.275L28.2803 216.946C28.1397 217.087 27.9489 217.166 27.75 217.166H23.75C23.3358 217.166 23 216.83 23 216.416V212.416C23 212.217 23.079 212.026 23.2197 211.886L34.8912 200.214ZM37.4216 200.666C36.8703 200.666 36.3417 200.885 35.9519 201.275L35.5607 201.666L38.5 204.605L38.8912 204.214C39.281 203.824 39.5 203.296 39.5 202.744C39.5 201.597 38.5695 200.666 37.4216 200.666ZM37.4393 205.666L34.5 202.727L24.5 212.727V215.666H27.4393L37.4393 205.666Z" fill="#666666"/>
<path fill-rule="evenodd" clip-rule="evenodd" d="M24.5642 249.519L32 253.801L39.4358 249.519C39.27 249.023 38.8017 248.666 38.25 248.666H25.75C25.1983 248.666 24.73 249.023 24.5642 249.519ZM39.5 251.213L32.3742 255.316C32.1426 255.449 31.8574 255.449 31.6258 255.316L24.5 251.213V258.416C24.5 259.106 25.0596 259.666 25.75 259.666H38.25C38.9404 259.666 39.5 259.106 39.5 258.416V251.213ZM23 249.916C23 248.397 24.2312 247.166 25.75 247.166H38.25C39.7688 247.166 41 248.397 41 249.916V258.416C41 259.935 39.7688 261.166 38.25 261.166H25.75C24.2312 261.166 23 259.935 23 258.416V249.916Z" fill="#666666"/>
</svg>
