<svg width="24" height="25" viewBox="0 0 24 25" fill="none" xmlns="http://www.w3.org/2000/svg">
<path fill-rule="evenodd" clip-rule="evenodd" d="M12 4.66602C10.6193 4.66602 9.5 5.78531 9.5 7.16602C9.5 8.54673 10.6193 9.66602 12 9.66602C13.3807 9.66602 14.5 8.54673 14.5 7.16602C14.5 5.78531 13.3807 4.66602 12 4.66602ZM8 7.16602C8 4.95688 9.79086 3.16602 12 3.16602C14.2091 3.16602 16 4.95688 16 7.16602C16 9.37516 14.2091 11.166 12 11.166C9.79086 11.166 8 9.37516 8 7.16602ZM5 18.791C5 15.6844 7.5184 13.166 10.625 13.166H13.375C16.4816 13.166 19 15.6844 19 18.791C19 20.1027 17.9367 21.166 16.625 21.166H7.375C6.06332 21.166 5 20.1027 5 18.791ZM10.625 14.666C8.34683 14.666 6.5 16.5128 6.5 18.791C6.5 19.2742 6.89175 19.666 7.375 19.666H16.625C17.1082 19.666 17.5 19.2742 17.5 18.791C17.5 16.5128 15.6532 14.666 13.375 14.666H10.625Z" fill="#666666"/>
</svg>
