<svg width="24" height="25" viewBox="0 0 24 25" fill="none" xmlns="http://www.w3.org/2000/svg">
<path fill-rule="evenodd" clip-rule="evenodd" d="M4.56424 7.51939L12 11.8006L19.4358 7.51939C19.27 7.02346 18.8017 6.66602 18.25 6.66602H5.75C5.19828 6.66602 4.73005 7.02346 4.56424 7.51939ZM19.5 9.21327L12.3742 13.316C12.1426 13.4493 11.8574 13.4493 11.6258 13.316L4.5 9.21327V16.416C4.5 17.1064 5.05964 17.666 5.75 17.666H18.25C18.9404 17.666 19.5 17.1064 19.5 16.416V9.21327ZM3 7.91602C3 6.39724 4.23122 5.16602 5.75 5.16602H18.25C19.7688 5.16602 21 6.39724 21 7.91602V16.416C21 17.9348 19.7688 19.166 18.25 19.166H5.75C4.23122 19.166 3 17.9348 3 16.416V7.91602Z" fill="#666666"/>
</svg>
