<svg width="26" height="26" viewBox="0 0 26 26" fill="none" xmlns="http://www.w3.org/2000/svg">
<path fill-rule="evenodd" clip-rule="evenodd" d="M13 5.5C11.6193 5.5 10.5 6.61929 10.5 8C10.5 9.38071 11.6193 10.5 13 10.5C14.3807 10.5 15.5 9.38071 15.5 8C15.5 6.61929 14.3807 5.5 13 5.5ZM9 8C9 5.79086 10.7909 4 13 4C15.2091 4 17 5.79086 17 8C17 10.2091 15.2091 12 13 12C10.7909 12 9 10.2091 9 8ZM6 19.625C6 16.5184 8.5184 14 11.625 14H14.375C17.4816 14 20 16.5184 20 19.625C20 20.9367 18.9367 22 17.625 22H8.375C7.06332 22 6 20.9367 6 19.625ZM11.625 15.5C9.34683 15.5 7.5 17.3468 7.5 19.625C7.5 20.1082 7.89175 20.5 8.375 20.5H17.625C18.1082 20.5 18.5 20.1082 18.5 19.625C18.5 17.3468 16.6532 15.5 14.375 15.5H11.625Z" fill="#666666"/>
</svg>
