<svg width="26" height="22" viewBox="0 0 26 22" fill="none" xmlns="http://www.w3.org/2000/svg">
<path fill-rule="evenodd" clip-rule="evenodd" d="M5.56424 6.35337L13 10.6346L20.4358 6.35337C20.27 5.85744 19.8017 5.5 19.25 5.5H6.75C6.19828 5.5 5.73005 5.85744 5.56424 6.35337ZM20.5 8.04725L13.3742 12.15C13.1426 12.2833 12.8574 12.2833 12.6258 12.15L5.5 8.04725V15.25C5.5 15.9404 6.05964 16.5 6.75 16.5H19.25C19.9404 16.5 20.5 15.9404 20.5 15.25V8.04725ZM4 6.75C4 5.23122 5.23122 4 6.75 4H19.25C20.7688 4 22 5.23122 22 6.75V15.25C22 16.7688 20.7688 18 19.25 18H6.75C5.23122 18 4 16.7688 4 15.25V6.75Z" fill="#666666"/>
</svg>
