<svg width="24" height="26" viewBox="0 0 24 26" fill="none" xmlns="http://www.w3.org/2000/svg">
<path fill-rule="evenodd" clip-rule="evenodd" d="M11.5742 4.13259C11.8305 3.9558 12.1695 3.9558 12.4258 4.13259L18.8113 8.53636C19.5556 9.04967 20 9.89605 20 10.8002V19.25C20 20.7688 18.7688 22 17.25 22H6.75C5.23122 22 4 20.7688 4 19.25V10.8002C4 9.89605 4.44443 9.04967 5.18873 8.53636L11.5742 4.13259ZM10.5 20.5H13.5V15.75C13.5 15.6119 13.3881 15.5 13.25 15.5H10.75C10.6119 15.5 10.5 15.6119 10.5 15.75V20.5ZM15 20.5V15.75C15 14.7835 14.2165 14 13.25 14H10.75C9.7835 14 9 14.7835 9 15.75V20.5H6.75C6.05964 20.5 5.5 19.9404 5.5 19.25V10.8002C5.5 10.3892 5.70201 10.0045 6.04033 9.77118L12 5.66106L17.9597 9.77118C18.298 10.0045 18.5 10.3892 18.5 10.8002V19.25C18.5 19.9404 17.9404 20.5 17.25 20.5H15Z" fill="#666666"/>
</svg>
