<svg width="26" height="24" viewBox="0 0 26 24" fill="none" xmlns="http://www.w3.org/2000/svg">
<path fill-rule="evenodd" clip-rule="evenodd" d="M11.3238 4H14.6762C14.9337 3.99998 15.1702 3.99997 15.3679 4.01612C15.581 4.03353 15.8142 4.07339 16.0445 4.19074C16.3738 4.35852 16.6415 4.62624 16.8093 4.95552C16.9266 5.18583 16.9665 5.419 16.9839 5.63213C17 5.82981 17 6.06629 17 6.32377V7H19.6762C19.9337 6.99998 20.1702 6.99997 20.3679 7.01612C20.581 7.03353 20.8142 7.07339 21.0445 7.19074C21.3738 7.35852 21.6415 7.62624 21.8093 7.95552C21.9266 8.18583 21.9665 8.419 21.9839 8.63213C22 8.82981 22 9.06629 22 9.32377V13.6762C22 13.9337 22 14.1702 21.9839 14.3679C21.9665 14.581 21.9266 14.8142 21.8093 15.0445C21.6415 15.3738 21.3738 15.6415 21.0445 15.8093C21.0297 15.8168 21.0148 15.824 21 15.831V17.6762C21 17.9337 21 18.1702 20.9839 18.3679C20.9665 18.581 20.9266 18.8142 20.8093 19.0445C20.6415 19.3738 20.3738 19.6415 20.0445 19.8093C19.8142 19.9266 19.581 19.9665 19.3679 19.9839C19.1702 20 18.9337 20 18.6762 20H7.32377C7.06629 20 6.82981 20 6.63213 19.9839C6.419 19.9665 6.18583 19.9266 5.95552 19.8093C5.62624 19.6415 5.35852 19.3738 5.19074 19.0445C5.07339 18.8142 5.03353 18.581 5.01612 18.3679C4.99997 18.1702 4.99998 17.9337 5 17.6762V15.831C4.98517 15.824 4.97034 15.8168 4.95552 15.8093C4.62624 15.6415 4.35852 15.3738 4.19074 15.0445C4.07339 14.8142 4.03353 14.581 4.01612 14.3679C3.99997 14.1702 3.99998 13.9337 4 13.6762V9.32378C3.99998 9.0663 3.99997 8.82982 4.01612 8.63213C4.03353 8.419 4.07339 8.18583 4.19074 7.95552C4.35852 7.62624 4.62624 7.35852 4.95552 7.19074C5.18583 7.07339 5.419 7.03353 5.63213 7.01612C5.82982 6.99997 6.0663 6.99998 6.32379 7C6.3325 7 6.34124 7 6.35 7H9V6.32379C8.99998 6.0663 8.99997 5.82982 9.01612 5.63213C9.03353 5.419 9.07339 5.18583 9.19074 4.95552C9.35852 4.62624 9.62624 4.35852 9.95552 4.19074C10.1858 4.07339 10.419 4.03353 10.6321 4.01612C10.8298 3.99997 11.0663 3.99998 11.3238 4ZM6.35 8.5C6.0576 8.5 5.88341 8.50059 5.75428 8.51114C5.67547 8.51757 5.64234 8.52607 5.63347 8.52883C5.58883 8.55235 5.55235 8.58883 5.52883 8.63347C5.52607 8.64234 5.51757 8.67547 5.51114 8.75428C5.50059 8.88341 5.5 9.0576 5.5 9.35V13.65C5.5 13.9424 5.50059 14.1166 5.51114 14.2457C5.51757 14.3245 5.52607 14.3577 5.52883 14.3665C5.55235 14.4112 5.58883 14.4477 5.63347 14.4712C5.64234 14.4739 5.67547 14.4824 5.75428 14.4889C5.76561 14.4898 5.77729 14.4906 5.78936 14.4914C5.79424 14.4917 5.7991 14.492 5.80395 14.4923C5.92791 14.4996 6.09346 14.5 6.35 14.5H10V13.75C10 13.3358 10.3358 13 10.75 13C11.1642 13 11.5 13.3358 11.5 13.75V14.5H14.5V13.75C14.5 13.3358 14.8358 13 15.25 13C15.6642 13 16 13.3358 16 13.75V14.5H19.65C19.9065 14.5 20.0721 14.4996 20.1961 14.4923C20.2009 14.492 20.2058 14.4917 20.2106 14.4914C20.2227 14.4906 20.2344 14.4898 20.2457 14.4889C20.3245 14.4824 20.3577 14.4739 20.3665 14.4712C20.4112 14.4477 20.4477 14.4112 20.4712 14.3665C20.4739 14.3577 20.4824 14.3245 20.4889 14.2457C20.4994 14.1166 20.5 13.9424 20.5 13.65V9.35C20.5 9.0576 20.4994 8.88341 20.4889 8.75428C20.4824 8.67547 20.4739 8.64234 20.4712 8.63347C20.4477 8.58883 20.4112 8.55235 20.3665 8.52883C20.3577 8.52607 20.3245 8.51758 20.2457 8.51114C20.1166 8.50059 19.9424 8.5 19.65 8.5H6.35ZM15.5 7H10.5V6.35C10.5 6.0576 10.5006 5.88341 10.5111 5.75428C10.5176 5.67547 10.5261 5.64234 10.5288 5.63347C10.5524 5.58883 10.5888 5.55235 10.6335 5.52883C10.6423 5.52607 10.6755 5.51757 10.7543 5.51114C10.8834 5.50059 11.0576 5.5 11.35 5.5H14.65C14.9424 5.5 15.1166 5.50059 15.2457 5.51114C15.3245 5.51757 15.3577 5.52607 15.3665 5.52883C15.4112 5.55235 15.4477 5.58882 15.4712 5.63347C15.4739 5.64234 15.4824 5.67547 15.4889 5.75428C15.4994 5.88341 15.5 6.0576 15.5 6.35V7ZM15.4703 5.63088L15.4708 5.63236L15.4703 5.63088ZM15.3691 5.52973L15.3676 5.52918L15.3691 5.52973ZM10.6309 5.52973L10.6324 5.52918L10.6309 5.52973ZM10.5292 5.63236L10.5297 5.63088L10.5292 5.63236ZM20.3691 8.52973L20.3676 8.52917L20.3691 8.52973ZM20.4703 8.63088L20.4708 8.63236L20.4703 8.63088ZM20.4703 14.3691L20.4708 14.3676L20.4703 14.3691ZM20.3691 14.4703L20.3676 14.4708L20.3691 14.4703ZM19.5 16H16V16.25C16 16.6642 15.6642 17 15.25 17C14.8358 17 14.5 16.6642 14.5 16.25V16H11.5V16.25C11.5 16.6642 11.1642 17 10.75 17C10.3358 17 10 16.6642 10 16.25V16H6.5V17.65C6.5 17.9424 6.50059 18.1166 6.51114 18.2457C6.51758 18.3245 6.52607 18.3577 6.52883 18.3665C6.55235 18.4112 6.58883 18.4477 6.63347 18.4712C6.64235 18.4739 6.67547 18.4824 6.75428 18.4889C6.88341 18.4994 7.0576 18.5 7.35 18.5H18.65C18.9424 18.5 19.1166 18.4994 19.2457 18.4889C19.3245 18.4824 19.3577 18.4739 19.3665 18.4712C19.4112 18.4477 19.4477 18.4112 19.4712 18.3665C19.4739 18.3577 19.4824 18.3245 19.4889 18.2457C19.4994 18.1166 19.5 17.9424 19.5 17.65V16ZM19.4703 18.3691L19.4708 18.3676L19.4703 18.3691ZM19.3691 18.4703L19.3676 18.4708L19.3691 18.4703ZM6.63088 18.4703L6.63236 18.4708L6.63088 18.4703ZM6.52918 18.3676L6.52973 18.3691L6.52918 18.3676ZM5.63088 14.4703L5.63236 14.4708L5.63088 14.4703ZM5.52918 14.3676L5.52973 14.3691L5.52918 14.3676ZM5.52917 8.63239L5.52973 8.63088L5.52917 8.63239ZM5.63239 8.52917L5.63088 8.52973L5.63239 8.52917Z" fill="#666666"/>
</svg>
