<svg width="20" height="21" viewBox="0 0 20 21" fill="none" xmlns="http://www.w3.org/2000/svg">
<path d="M17.0392 17.3529H14.0775V12.7121C14.0775 11.6054 14.055 10.1812 12.5342 10.1812C10.99 10.1812 10.7542 11.3854 10.7542 12.6304V17.3529H7.7925V7.80957H10.6375V9.1104H10.6758C11.0733 8.3604 12.04 7.56874 13.4842 7.56874C16.485 7.56874 17.04 9.54374 17.04 12.1146L17.0392 17.3529ZM4.4475 6.50374C3.49417 6.50374 2.72833 5.73207 2.72833 4.7829C2.72833 3.83457 3.495 3.06374 4.4475 3.06374C5.3975 3.06374 6.1675 3.83457 6.1675 4.7829C6.1675 5.73207 5.39667 6.50374 4.4475 6.50374ZM5.9325 17.3529H2.9625V7.80957H5.9325V17.3529ZM18.5208 0.30957H1.47583C0.66 0.30957 0 0.95457 0 1.7504V18.8687C0 19.6654 0.66 20.3096 1.47583 20.3096H18.5183C19.3333 20.3096 20 19.6654 20 18.8687V1.7504C20 0.95457 19.3333 0.30957 18.5183 0.30957H18.5208Z" fill="#999999"/>
</svg>
