<svg width="24" height="25" viewBox="0 0 24 25" fill="none" xmlns="http://www.w3.org/2000/svg">
<path fill-rule="evenodd" clip-rule="evenodd" d="M6.91957 5.16602H17.0804C17.6146 5.16601 18.0604 5.166 18.4247 5.19576C18.8046 5.2268 19.1612 5.29391 19.4985 5.46575C20.0159 5.7294 20.4366 6.1501 20.7003 6.66755C20.8721 7.00481 20.9392 7.36147 20.9703 7.74135C21 8.10558 21 8.55142 21 9.08557V9.91602C21 10.3302 20.6642 10.666 20.25 10.666C19.4216 10.666 18.75 11.3376 18.75 12.166C18.75 12.9944 19.4216 13.666 20.25 13.666C20.6642 13.666 21 14.0018 21 14.416V15.2465C21 15.7806 21 16.2264 20.9703 16.5907C20.9392 16.9706 20.8721 17.3272 20.7003 17.6645C20.4366 18.1819 20.0159 18.6026 19.4985 18.8663C19.1612 19.0381 18.8046 19.1052 18.4247 19.1363C18.0604 19.166 17.6146 19.166 17.0805 19.166H6.91955C6.3854 19.166 5.93956 19.166 5.57533 19.1363C5.19545 19.1052 4.83879 19.0381 4.50153 18.8663C3.98408 18.6026 3.56338 18.1819 3.29973 17.6645C3.12789 17.3272 3.06078 16.9706 3.02974 16.5907C2.99998 16.2264 2.99999 15.7806 3 15.2464V14.416C3 14.0018 3.33579 13.666 3.75 13.666C4.57843 13.666 5.25 12.9944 5.25 12.166C5.25 11.3376 4.57843 10.666 3.75 10.666C3.33579 10.666 3 10.3302 3 9.91602V9.08559C2.99999 8.55143 2.99998 8.10558 3.02974 7.74135C3.06078 7.36147 3.12789 7.00481 3.29973 6.66755C3.56338 6.1501 3.98408 5.7294 4.50153 5.46575C4.83879 5.29391 5.19545 5.2268 5.57533 5.19576C5.93956 5.166 6.38541 5.16601 6.91957 5.16602ZM15 17.666H17.05C17.6224 17.666 18.0066 17.6654 18.3025 17.6412C18.5896 17.6178 18.7269 17.5759 18.8175 17.5298C19.0527 17.4099 19.2439 17.2187 19.3638 16.9835C19.4099 16.8929 19.4518 16.7556 19.4752 16.4685C19.4994 16.1726 19.5 15.7884 19.5 15.216V15.0715C18.2061 14.7385 17.25 13.5639 17.25 12.166C17.25 10.7681 18.2061 9.59357 19.5 9.26053V9.11602C19.5 8.54359 19.4994 8.15938 19.4752 7.8635C19.4518 7.57638 19.4099 7.43909 19.3638 7.34853C19.2439 7.11333 19.0527 6.9221 18.8175 6.80226C18.7269 6.75612 18.5896 6.71424 18.3025 6.69078C18.0066 6.6666 17.6224 6.66602 17.05 6.66602H15V17.666ZM13.5 6.66602V17.666H6.95C6.37757 17.666 5.99336 17.6654 5.69748 17.6412C5.41036 17.6178 5.27307 17.5759 5.18251 17.5298C4.94731 17.4099 4.75608 17.2187 4.63624 16.9835C4.5901 16.8929 4.54822 16.7556 4.52476 16.4685C4.50058 16.1726 4.5 15.7884 4.5 15.216V15.0715C5.79392 14.7385 6.75 13.5639 6.75 12.166C6.75 10.7681 5.79392 9.59357 4.5 9.26053V9.11602C4.5 8.54359 4.50058 8.15938 4.52476 7.8635C4.54822 7.57638 4.5901 7.43909 4.63624 7.34853C4.75608 7.11333 4.94731 6.9221 5.18251 6.80226C5.27307 6.75612 5.41036 6.71424 5.69748 6.69078C5.99336 6.6666 6.37757 6.66602 6.95 6.66602H13.5Z" fill="#666666"/>
</svg>
